<svg width="400" height="240" viewBox="0 0 400 240" fill="none" xmlns="http://www.w3.org/2000/svg">
  <rect width="400" height="240" fill="url(#gradient3)"/>
  <!-- Megaphone -->
  <path d="M80 120L140 100L140 140L80 120Z" fill="#FFFFFF" opacity="0.9"/>
  <circle cx="140" cy="120" r="15" fill="#FFFFFF" opacity="0.9"/>
  <path d="M155 120L180 110L180 130L155 120Z" fill="#FFFFFF" opacity="0.9"/>
  <!-- Sound waves -->
  <path d="M190 110C195 115 195 125 190 130" stroke="#FFFFFF" stroke-width="3" fill="none" opacity="0.7"/>
  <path d="M200 105C210 110 210 130 200 135" stroke="#FFFFFF" stroke-width="3" fill="none" opacity="0.7"/>
  <path d="M210 100C225 105 225 135 210 140" stroke="#FFFFFF" stroke-width="3" fill="none" opacity="0.7"/>
  <!-- Social Media Icons -->
  <circle cx="280" cy="80" r="20" fill="#FFFFFF" opacity="0.9"/>
  <text x="280" y="87" text-anchor="middle" fill="#EC4899" font-family="Arial, sans-serif" font-size="16" font-weight="bold">f</text>
  <circle cx="320" cy="80" r="20" fill="#FFFFFF" opacity="0.9"/>
  <text x="320" y="87" text-anchor="middle" fill="#3B82F6" font-family="Arial, sans-serif" font-size="16" font-weight="bold">t</text>
  <circle cx="280" cy="160" r="20" fill="#FFFFFF" opacity="0.9"/>
  <text x="280" y="167" text-anchor="middle" fill="#EF4444" font-family="Arial, sans-serif" font-size="16" font-weight="bold">@</text>
  <circle cx="320" cy="160" r="20" fill="#FFFFFF" opacity="0.9"/>
  <text x="320" y="167" text-anchor="middle" fill="#0EA5E9" font-family="Arial, sans-serif" font-size="16" font-weight="bold">in</text>
  <!-- Title -->
  <text x="200" y="35" text-anchor="middle" fill="white" font-family="Arial, sans-serif" font-size="24" font-weight="bold">Digital Marketing</text>
  <text x="200" y="55" text-anchor="middle" fill="white" font-family="Arial, sans-serif" font-size="14" opacity="0.8">Social Media &amp; SEO</text>
  <defs>
    <linearGradient id="gradient3" x1="0%" y1="0%" x2="100%" y2="100%">
      <stop offset="0%" style="stop-color:#EC4899;stop-opacity:1" />
      <stop offset="100%" style="stop-color:#BE185D;stop-opacity:1" />
    </linearGradient>
  </defs>
</svg>
