<svg width="400" height="240" viewBox="0 0 400 240" fill="none" xmlns="http://www.w3.org/2000/svg">
  <rect width="400" height="240" fill="url(#gradient2)"/>
  <!-- Code Editor Window -->
  <rect x="50" y="60" width="300" height="160" rx="8" fill="#1F2937" opacity="0.9"/>
  <rect x="50" y="60" width="300" height="30" rx="8" fill="#374151" opacity="0.9"/>
  <!-- Window Controls -->
  <circle cx="70" cy="75" r="5" fill="#EF4444"/>
  <circle cx="90" cy="75" r="5" fill="#F59E0B"/>
  <circle cx="110" cy="75" r="5" fill="#10B981"/>
  <!-- Code Lines -->
  <rect x="70" y="110" width="80" height="3" fill="#F59E0B"/>
  <rect x="160" y="110" width="40" height="3" fill="#3B82F6"/>
  <rect x="210" y="110" width="60" height="3" fill="#8B5CF6"/>
  <rect x="70" y="125" width="120" height="3" fill="#10B981"/>
  <rect x="200" y="125" width="80" height="3" fill="#EF4444"/>
  <rect x="70" y="140" width="60" height="3" fill="#F59E0B"/>
  <rect x="140" y="140" width="100" height="3" fill="#3B82F6"/>
  <rect x="70" y="155" width="90" height="3" fill="#8B5CF6"/>
  <rect x="170" y="155" width="70" height="3" fill="#10B981"/>
  <!-- JS Logo -->
  <rect x="280" y="110" width="50" height="50" rx="4" fill="#F7DF1E"/>
  <text x="305" y="140" text-anchor="middle" fill="#000000" font-family="Arial, sans-serif" font-size="20" font-weight="bold">JS</text>
  <!-- Title -->
  <text x="200" y="35" text-anchor="middle" fill="white" font-family="Arial, sans-serif" font-size="24" font-weight="bold">JavaScript Development</text>
  <text x="200" y="55" text-anchor="middle" fill="white" font-family="Arial, sans-serif" font-size="14" opacity="0.8">Modern Web Programming</text>
  <defs>
    <linearGradient id="gradient2" x1="0%" y1="0%" x2="100%" y2="100%">
      <stop offset="0%" style="stop-color:#F59E0B;stop-opacity:1" />
      <stop offset="100%" style="stop-color:#D97706;stop-opacity:1" />
    </linearGradient>
  </defs>
</svg>
