<svg width="400" height="240" viewBox="0 0 400 240" fill="none" xmlns="http://www.w3.org/2000/svg">
  <rect width="400" height="240" fill="url(#gradient4)"/>
  <!-- Kanban Board -->
  <rect x="60" y="80" width="80" height="120" rx="8" fill="#FFFFFF" opacity="0.9"/>
  <rect x="160" y="80" width="80" height="120" rx="8" fill="#FFFFFF" opacity="0.9"/>
  <rect x="260" y="80" width="80" height="120" rx="8" fill="#FFFFFF" opacity="0.9"/>
  <!-- Column Headers -->
  <rect x="70" y="90" width="60" height="20" rx="4" fill="#EF4444"/>
  <rect x="170" y="90" width="60" height="20" rx="4" fill="#F59E0B"/>
  <rect x="270" y="90" width="60" height="20" rx="4" fill="#10B981"/>
  <!-- Cards -->
  <rect x="70" y="120" width="60" height="15" rx="2" fill="#F3F4F6"/>
  <rect x="70" y="140" width="60" height="15" rx="2" fill="#F3F4F6"/>
  <rect x="70" y="160" width="60" height="15" rx="2" fill="#F3F4F6"/>
  <rect x="170" y="120" width="60" height="15" rx="2" fill="#F3F4F6"/>
  <rect x="170" y="140" width="60" height="15" rx="2" fill="#F3F4F6"/>
  <rect x="270" y="120" width="60" height="15" rx="2" fill="#F3F4F6"/>
  <!-- Gantt Chart -->
  <rect x="60" y="220" width="280" height="3" fill="#FFFFFF" opacity="0.3"/>
  <rect x="80" y="215" width="40" height="13" rx="2" fill="#3B82F6" opacity="0.8"/>
  <rect x="130" y="215" width="60" height="13" rx="2" fill="#8B5CF6" opacity="0.8"/>
  <rect x="200" y="215" width="80" height="13" rx="2" fill="#10B981" opacity="0.8"/>
  <!-- Title -->
  <text x="200" y="35" text-anchor="middle" fill="white" font-family="Arial, sans-serif" font-size="24" font-weight="bold">Project Management</text>
  <text x="200" y="55" text-anchor="middle" fill="white" font-family="Arial, sans-serif" font-size="14" opacity="0.8">Agile &amp; Scrum Methodologies</text>
  <defs>
    <linearGradient id="gradient4" x1="0%" y1="0%" x2="100%" y2="100%">
      <stop offset="0%" style="stop-color:#8B5CF6;stop-opacity:1" />
      <stop offset="100%" style="stop-color:#7C3AED;stop-opacity:1" />
    </linearGradient>
  </defs>
</svg>
